<svg width="28" height="32" viewBox="0 0 28 32" fill="none" xmlns="http://www.w3.org/2000/svg">
<path d="M2.27435 11.7633C-0.430958 16.4579 1.28886 23.5821 4.28049 27.9018C5.77379 30.0614 7.28566 32 9.35643 32C9.39546 32 9.43459 31.9993 9.47467 31.9977C10.4476 31.9589 11.1506 31.6593 11.8304 31.3699C12.5936 31.0446 13.3829 30.7084 14.6209 30.7084C15.7987 30.7084 16.5503 31.0337 17.2772 31.3482C17.9936 31.6582 18.7315 31.9788 19.8218 31.9583C22.1543 31.9149 23.5865 29.8231 24.85 27.9776C26.1685 26.0508 26.8299 24.18 27.0531 23.4651L27.0621 23.4367C27.1046 23.3096 27.0446 23.1709 26.9228 23.115C26.9194 23.1134 26.907 23.1083 26.9036 23.1068C26.4928 22.9389 22.8897 21.3404 22.8518 16.9838C22.8167 13.4443 25.5548 11.5699 26.104 11.2302L26.1296 11.2143C26.1891 11.176 26.2305 11.1152 26.2446 11.0458C26.2586 10.9764 26.2439 10.9042 26.2041 10.8459C24.3141 8.08005 21.4173 7.66321 20.251 7.61306C20.0818 7.59617 19.9071 7.58767 19.7317 7.58767C18.3619 7.58767 17.0497 8.10502 15.9954 8.52071C15.2677 8.80766 14.6392 9.05547 14.2056 9.05547C13.7185 9.05547 13.0864 8.80461 12.3544 8.5142C11.3755 8.12569 10.266 7.68545 9.0914 7.68545C9.06339 7.68545 9.0358 7.68577 9.00863 7.68629C6.27761 7.72648 3.69704 9.28892 2.27435 11.7633Z" fill="url(#paint0_linear)"/>
<path d="M20.2532 0.000201593C18.5994 0.067559 16.6155 1.08558 15.4297 2.47448C14.4219 3.64191 13.4375 5.58835 13.6968 7.55031C13.7131 7.67307 13.813 7.76781 13.9365 7.77736C14.0481 7.78606 14.1621 7.79047 14.2756 7.79058C15.8927 7.79058 17.6371 6.89594 18.8285 5.45542C20.0824 3.93431 20.7164 1.98221 20.5246 0.233644C20.5095 0.0966213 20.3889 -0.00514923 20.2532 0.000201593Z" fill="url(#paint1_linear)"/>
<defs>
<linearGradient id="paint0_linear" x1="24.806" y1="19.7938" x2="0.572457" y2="21.8037" gradientUnits="userSpaceOnUse">
<stop stop-color="#1F2BED"/>
<stop offset="1" stop-color="#486EF9"/>
</linearGradient>
<linearGradient id="paint1_linear" x1="19.9592" y1="3.89529" x2="13.5479" y2="4.33515" gradientUnits="userSpaceOnUse">
<stop stop-color="#1F2BED"/>
<stop offset="1" stop-color="#486EF9"/>
</linearGradient>
</defs>
</svg>
