<svg width="43" height="30" viewBox="0 0 43 30" fill="none" xmlns="http://www.w3.org/2000/svg">
<path fill-rule="evenodd" clip-rule="evenodd" d="M0 0.523536H6.52976V17.7979C6.52976 20.5316 7.79836 22.16 8.8015 22.8581C7.73949 23.7887 4.49415 24.603 2.07493 22.6253C0.648631 21.4596 0 19.5428 0 17.7396V0.523536ZM40.8084 14.8729V13.0576H42.7999V6.68885H40.6129C39.7734 2.86521 36.3199 0 32.1898 0C27.432 0 23.5751 3.80201 23.5751 8.49178V23.3647C24.9306 23.5525 26.5455 23.3414 27.9194 22.2183C29.3455 21.0524 29.9941 19.1357 29.9941 17.3326V16.7846H33.2553V10.4159H29.9941V8.49178H30.0019C30.0019 7.30082 30.9814 6.33533 32.1898 6.33533C33.398 6.33533 34.3814 7.30082 34.3814 8.49178V14.8729C34.3814 19.5627 38.2424 23.3647 43 23.3647V17.0294C41.7918 17.0294 40.8084 16.0639 40.8084 14.8729ZM16.0779 6.68885V16.0356C16.0779 16.5662 15.6312 16.9964 15.0802 16.9964C14.5291 16.9964 14.0824 16.5662 14.0824 16.0356V6.68885H7.62132V17.6816C7.62132 19.6591 8.30166 22.16 11.3978 22.9744C14.4971 23.7895 16.2951 22.102 16.2951 22.102C16.1313 23.2138 15.0691 24.0281 13.358 24.2026C12.0633 24.3345 10.4077 23.9118 9.58177 23.5628V29.3868C11.6862 29.9985 13.9121 30.1962 16.0905 29.7795C20.0437 29.0234 22.5388 25.7663 22.5388 21.4331V6.68885H16.0779Z" fill="#3752F4"/>
</svg>
