<svg width="25" height="27" viewBox="0 0 25 27" fill="none" xmlns="http://www.w3.org/2000/svg">
<path d="M23.2798 11.4757L18.7072 8.83483L12.4424 13.5158L18.7071 18.1967L23.2953 15.5468C24.0107 15.1122 24.4376 14.3527 24.4376 13.5159C24.4376 12.679 24.0106 11.9196 23.2798 11.4757Z" fill="black"/>
<path d="M14.0261 13.5159C14.0192 13.5247 8.48692 20.6376 8.48244 20.6434L1.27574 26.319C0.832197 25.8754 0.562988 25.2737 0.562988 24.6083V2.38413C0.562988 1.71894 0.832197 1.11701 1.27574 0.673576L8.48244 6.38836C8.48692 6.39411 14.0192 13.5071 14.0261 13.5159Z" fill="black"/>
<path d="M14.0263 13.5159L12.4424 15.559V11.4726L14.0263 13.5159Z" fill="black"/>
<path d="M18.7146 8.82749L14.0262 13.5159L1.27588 0.673627C1.43422 0.531024 1.59266 0.420152 1.76688 0.309279C2.5271 -0.118318 3.42997 -0.102532 4.17445 0.356849L12.4423 5.21628L18.7146 8.82749Z" fill="black"/>
<path d="M18.7146 8.8275L14.0263 13.5159L12.4424 11.932V5.21628L18.7146 8.8275Z" fill="black"/>
<path d="M18.7146 18.2041L12.4423 21.8155L4.15861 26.6516C3.77848 26.8733 3.36667 27 2.93896 27C2.54299 27 2.14702 26.8891 1.76688 26.6832C1.59266 26.5724 1.43422 26.4615 1.27588 26.319L14.0262 13.5159L18.7146 18.2041Z" fill="black"/>
<path d="M18.7146 18.2041L12.4424 21.8154V15.0998L14.0263 13.5159L18.7146 18.2041Z" fill="black"/>
</svg>
