<svg width="60" height="21" viewBox="0 0 60 21" fill="none" xmlns="http://www.w3.org/2000/svg">
<g clip-path="url(#clip0)">
<path d="M3.452 14.9979C3.70555 15.6763 4.05659 16.2564 4.50518 16.7381C4.95377 17.2199 5.48521 17.5885 6.09952 17.8442C6.71388 18.0998 7.38185 18.2276 8.10347 18.2276C8.80561 18.2276 9.4638 18.0948 10.0782 17.8293C10.6925 17.5639 11.2288 17.1903 11.6871 16.7086C12.1454 16.2268 12.5014 15.6517 12.7549 14.9832C13.0085 14.3146 13.1352 13.5675 13.1352 12.7416V0H16.2069V20.6461H13.1645V18.7289C12.4819 19.4564 11.6774 20.0168 10.751 20.4102C9.82455 20.8034 8.8251 21 7.75243 21C6.66022 21 5.64122 20.8083 4.6953 20.4248C3.74944 20.0414 2.93026 19.4958 2.23796 18.7879C1.54566 18.08 0.999518 17.2297 0.599737 16.2367C0.199891 15.2437 0 14.1377 0 12.9185V0H3.0717V12.7416C3.0717 13.5675 3.19845 14.3195 3.452 14.9979Z" fill="#3752F4"/>
<path d="M21.502 0V7.52106C22.1846 6.83286 22.9745 6.28727 23.8717 5.88414C24.7688 5.48101 25.7439 5.27948 26.7971 5.27948C27.8893 5.27948 28.9131 5.48591 29.8688 5.89882C30.8244 6.31174 31.6532 6.87215 32.3554 7.58005C33.0575 8.28796 33.6134 9.12358 34.0229 10.0871C34.4325 11.0506 34.6372 12.0731 34.6372 13.1545C34.6372 14.2359 34.4325 15.2535 34.0229 16.2071C33.6134 17.1608 33.0575 17.9916 32.3554 18.6994C31.6532 19.4073 30.8244 19.9677 29.8688 20.3806C28.9131 20.7935 27.8892 20.9999 26.7971 20.9999C25.7439 20.9999 24.7639 20.7984 23.857 20.3953C22.9501 19.9922 22.1554 19.4466 21.4728 18.7584V20.646H18.5474V0H21.502ZM21.8384 15.1896C22.1017 15.8189 22.4674 16.3694 22.9355 16.8413C23.4036 17.3132 23.9497 17.6869 24.5737 17.9622C25.1979 18.2374 25.8707 18.3751 26.5923 18.3751C27.2945 18.3751 27.9575 18.2374 28.5816 17.9622C29.2057 17.6869 29.7468 17.3133 30.2052 16.8413C30.6635 16.3695 31.0292 15.8189 31.3022 15.1896C31.5753 14.5604 31.7118 13.8821 31.7118 13.1545C31.7118 12.427 31.5753 11.7437 31.3022 11.1046C31.0292 10.4656 30.6635 9.91012 30.2052 9.43821C29.7469 8.96636 29.2057 8.59763 28.5816 8.3322C27.9574 8.06678 27.2944 7.93397 26.5923 7.93397C25.8902 7.93397 25.2271 8.06672 24.6031 8.3322C23.979 8.59769 23.4329 8.96636 22.9648 9.43821C22.4968 9.91012 22.1262 10.4656 21.8531 11.1046C21.5801 11.7437 21.4436 12.427 21.4436 13.1545C21.4435 13.8821 21.5752 14.5604 21.8384 15.1896Z" fill="#3752F4"/>
<path d="M36.3042 10.1166C36.6942 9.17279 37.2307 8.34206 37.9132 7.62437C38.5957 6.90668 39.4052 6.34137 40.3413 5.92845C41.2775 5.51554 42.2916 5.30911 43.3838 5.30911C44.4564 5.30911 45.4511 5.50575 46.3678 5.89896C47.2844 6.29223 48.0742 6.83789 48.7373 7.53594C49.4004 8.23392 49.9173 9.05982 50.2878 10.0134C50.6584 10.9671 50.8436 12.0043 50.8436 13.1252V14.0985H38.7031C38.8007 14.708 38.9957 15.2733 39.2882 15.7943C39.5808 16.3154 39.9464 16.7677 40.3852 17.1511C40.824 17.5346 41.3214 17.8344 41.8772 18.0507C42.4331 18.2669 43.023 18.3751 43.6471 18.3751C45.4219 18.3751 46.8554 17.6377 47.9475 16.163L50.0831 17.7557C49.342 18.7585 48.4254 19.545 47.3332 20.1152C46.241 20.6854 45.0123 20.9706 43.6472 20.9706C42.5355 20.9706 41.497 20.7739 40.5316 20.3807C39.5662 19.9875 38.7276 19.4368 38.0157 18.7289C37.3039 18.021 36.7432 17.1903 36.3336 16.2367C35.9241 15.2831 35.7192 14.2458 35.7192 13.125C35.7191 12.0633 35.9142 11.0604 36.3042 10.1166ZM40.4145 8.95155C39.5856 9.6496 39.0347 10.5787 38.7616 11.7388H47.8598C47.6062 10.5787 47.065 9.6496 46.2361 8.95155C45.4072 8.25357 44.437 7.90454 43.3253 7.90454C42.2136 7.90454 41.2434 8.25357 40.4145 8.95155Z" fill="#3752F4"/>
<path d="M56.3723 9.29072C55.7483 9.97892 55.4362 10.9129 55.4362 12.0927V20.6462H52.4814V5.60398H55.4069V7.46213C55.7774 6.85258 56.2601 6.37081 56.855 6.01689C57.4498 5.66291 58.1568 5.48592 58.976 5.48592H59.9998V8.2584H58.7711C57.796 8.25847 56.9964 8.60253 56.3723 9.29072Z" fill="#3752F4"/>
</g>
<defs>
<clipPath id="clip0">
<rect width="60" height="21" fill="white"/>
</clipPath>
</defs>
</svg>
