<svg width="128" height="23" viewBox="0 0 128 23" fill="none" xmlns="http://www.w3.org/2000/svg">
<path d="M8.38 14.41H4.66V22H0.58V2.2H9.31C11.57 2.2 13.33 2.74 14.59 3.82C15.87 4.88 16.51 6.38 16.51 8.32C16.51 9.74 16.16 10.93 15.46 11.89C14.76 12.85 13.76 13.54 12.46 13.96L17.68 22H13.03L8.38 14.41ZM4.66 11.26H8.77C9.97 11.26 10.85 11.03 11.41 10.57C11.99 10.09 12.28 9.36 12.28 8.38C12.28 7.4 11.99 6.68 11.41 6.22C10.85 5.74 9.97 5.5 8.77 5.5H4.66V11.26ZM21.9327 4.84C20.2327 4.84 19.3827 4.11 19.3827 2.65C19.3827 1.17 20.2327 0.429999 21.9327 0.429999C23.6327 0.429999 24.4827 1.17 24.4827 2.65C24.4827 4.11 23.6327 4.84 21.9327 4.84ZM23.9727 22H19.8627V7H23.9727V22ZM42.2495 0.429999V22H38.5895L38.4095 19.21C37.9695 20.15 37.3095 20.9 36.4295 21.46C35.5695 22.02 34.5795 22.3 33.4595 22.3C31.4595 22.3 29.8895 21.62 28.7495 20.26C27.6095 18.88 27.0395 16.97 27.0395 14.53C27.0395 12.07 27.6095 10.15 28.7495 8.77C29.8895 7.39 31.4595 6.7 33.4595 6.7C34.5395 6.7 35.4795 6.95 36.2795 7.45C37.0795 7.93 37.6995 8.6 38.1395 9.46V0.429999H42.2495ZM34.6595 19.15C35.7395 19.15 36.5895 18.76 37.2095 17.98C37.8295 17.2 38.1395 16.09 38.1395 14.65V14.35C38.1395 12.93 37.8295 11.83 37.2095 11.05C36.5895 10.25 35.7395 9.85 34.6595 9.85C33.5595 9.85 32.6995 10.25 32.0795 11.05C31.4595 11.85 31.1495 13 31.1495 14.5C31.1495 16 31.4595 17.15 32.0795 17.95C32.6995 18.75 33.5595 19.15 34.6595 19.15ZM60.0067 14.44C60.0067 15 59.9667 15.54 59.8867 16.06H49.2667C49.6867 18.18 50.9367 19.24 53.0167 19.24C53.8767 19.24 54.5867 19.08 55.1467 18.76C55.7067 18.44 56.0967 17.98 56.3167 17.38L59.6767 18.61C59.1967 19.81 58.3867 20.73 57.2467 21.37C56.1267 21.99 54.7167 22.3 53.0167 22.3C50.5367 22.3 48.6167 21.62 47.2567 20.26C45.8967 18.88 45.2167 16.96 45.2167 14.5C45.2167 12.04 45.8767 10.13 47.1967 8.77C48.5167 7.39 50.3767 6.7 52.7767 6.7C55.0967 6.7 56.8767 7.37 58.1167 8.71C59.3767 10.05 60.0067 11.96 60.0067 14.44ZM52.7467 9.73C51.7467 9.73 50.9467 10.02 50.3467 10.6C49.7667 11.18 49.3967 12.04 49.2367 13.18H56.2267C56.0667 12.06 55.6867 11.21 55.0867 10.63C54.4867 10.03 53.7067 9.73 52.7467 9.73ZM70.3877 6.7C72.5077 6.7 74.1777 7.39 75.3977 8.77C76.6377 10.15 77.2577 12.06 77.2577 14.5C77.2577 16.94 76.6377 18.85 75.3977 20.23C74.1777 21.61 72.5077 22.3 70.3877 22.3C69.0477 22.3 67.8877 21.98 66.9077 21.34C65.9277 20.68 65.2277 19.78 64.8077 18.64L64.7177 22H63.3677V0.0999994H64.8677V10.18C65.3277 9.1 66.0377 8.25 66.9977 7.63C67.9777 7.01 69.1077 6.7 70.3877 6.7ZM70.2077 20.98C71.9477 20.98 73.3077 20.41 74.2877 19.27C75.2677 18.11 75.7577 16.52 75.7577 14.5C75.7577 12.48 75.2677 10.9 74.2877 9.76C73.3077 8.6 71.9477 8.02 70.2077 8.02C68.6477 8.02 67.3877 8.55 66.4277 9.61C65.4677 10.67 64.9477 12.12 64.8677 13.96V15.04C64.9477 16.88 65.4677 18.33 66.4277 19.39C67.3877 20.45 68.6477 20.98 70.2077 20.98ZM87.2289 6.7C89.4489 6.7 91.1889 7.4 92.4489 8.8C93.7289 10.18 94.3689 12.08 94.3689 14.5C94.3689 16.92 93.7289 18.83 92.4489 20.23C91.1889 21.61 89.4489 22.3 87.2289 22.3C85.0089 22.3 83.2589 21.61 81.9789 20.23C80.7189 18.83 80.0889 16.92 80.0889 14.5C80.0889 12.08 80.7189 10.18 81.9789 8.8C83.2589 7.4 85.0089 6.7 87.2289 6.7ZM87.2289 7.99C85.4689 7.99 84.0889 8.57 83.0889 9.73C82.0889 10.89 81.5889 12.48 81.5889 14.5C81.5889 16.52 82.0889 18.11 83.0889 19.27C84.0889 20.43 85.4689 21.01 87.2289 21.01C88.9889 21.01 90.3689 20.43 91.3689 19.27C92.3689 18.11 92.8689 16.52 92.8689 14.5C92.8689 12.48 92.3689 10.89 91.3689 9.73C90.3689 8.57 88.9889 7.99 87.2289 7.99ZM104.324 6.7C106.544 6.7 108.284 7.4 109.544 8.8C110.824 10.18 111.464 12.08 111.464 14.5C111.464 16.92 110.824 18.83 109.544 20.23C108.284 21.61 106.544 22.3 104.324 22.3C102.104 22.3 100.354 21.61 99.0742 20.23C97.8142 18.83 97.1842 16.92 97.1842 14.5C97.1842 12.08 97.8142 10.18 99.0742 8.8C100.354 7.4 102.104 6.7 104.324 6.7ZM104.324 7.99C102.564 7.99 101.184 8.57 100.184 9.73C99.1842 10.89 98.6842 12.48 98.6842 14.5C98.6842 16.52 99.1842 18.11 100.184 19.27C101.184 20.43 102.564 21.01 104.324 21.01C106.084 21.01 107.464 20.43 108.464 19.27C109.464 18.11 109.964 16.52 109.964 14.5C109.964 12.48 109.464 10.89 108.464 9.73C107.464 8.57 106.084 7.99 104.324 7.99ZM120.28 14.05L116.74 17.47V22H115.24V0.0999994H116.74V15.58L125.65 7H127.6L121.39 13L127.84 22H126.01L120.28 14.05Z" fill="black"/>
</svg>
