<?xml version="1.0" encoding="utf-8"?><svg xmlns="http://www.w3.org/2000/svg" xmlns:xlink="http://www.w3.org/1999/xlink"><symbol viewBox="0 0 28 32" id="apple" xmlns="http://www.w3.org/2000/svg"><path d="M2.274 11.763C-.43 16.458 1.29 23.583 4.28 27.902 5.774 30.062 7.286 32 9.356 32c.04 0 .079 0 .119-.002.973-.04 1.676-.339 2.355-.628.764-.325 1.553-.662 2.79-.662 1.179 0 1.93.326 2.657.64.717.31 1.454.63 2.545.61 2.332-.043 3.765-2.135 5.028-3.98a17.647 17.647 0 002.203-4.513l.01-.028a.262.262 0 00-.14-.322l-.02-.008c-.41-.168-4.013-1.767-4.051-6.123-.035-3.54 2.703-5.414 3.252-5.754l.026-.016a.262.262 0 00.074-.368c-1.89-2.766-4.787-3.183-5.953-3.233a5.25 5.25 0 00-.52-.025c-1.37 0-2.681.517-3.736.933-.727.287-1.356.534-1.79.534-.486 0-1.119-.25-1.85-.54-.98-.39-2.089-.83-3.264-.83l-.082.001c-2.731.04-5.312 1.603-6.735 4.077z"/><path d="M20.253 0C18.6.068 16.616 1.086 15.43 2.474c-1.008 1.168-1.992 3.114-1.733 5.076a.262.262 0 00.24.227c.111.01.225.013.339.014 1.617 0 3.361-.895 4.552-2.336 1.254-1.52 1.888-3.473 1.697-5.221A.264.264 0 0020.253 0z"/><defs><linearGradient id="apaint0_linear" x1="24.806" y1="19.794" x2=".572" y2="21.804" gradientUnits="userSpaceOnUse"><stop stop-color="#1F2BED"/><stop offset="1" stop-color="#486EF9"/></linearGradient><linearGradient id="apaint1_linear" x1="19.959" y1="3.895" x2="13.548" y2="4.335" gradientUnits="userSpaceOnUse"><stop stop-color="#1F2BED"/><stop offset="1" stop-color="#486EF9"/></linearGradient></defs></symbol><symbol viewBox="0 0 12 10" id="arrow" xmlns="http://www.w3.org/2000/svg"><path d="M8.08.908a.424.424 0 00-.604 0 .427.427 0 000 .599l3.066 3.066H.423A.421.421 0 000 4.997c0 .236.187.43.423.43h10.12l-3.067 3.06a.434.434 0 000 .605c.17.17.442.17.605 0L11.873 5.3a.416.416 0 000-.6L8.081.909z"/></symbol><symbol viewBox="0 0 17 8" id="burger" xmlns="http://www.w3.org/2000/svg"><path d="M3 0h14v2H3zM0 6h17v2H0z"/></symbol><symbol viewBox="0 0 36 36" id="close" xmlns="http://www.w3.org/2000/svg"><path d="M25.996 27.36L8.318 9.681l2.08-2.08L28.076 25.28z"/><path d="M7.279 25.28L24.956 7.601l2.08 2.08L9.358 27.358z"/></symbol><symbol viewBox="0 0 82 82" id="conversation" xmlns="http://www.w3.org/2000/svg"><path d="M55.414 51.09c-.884 0-1.602.717-1.602 1.601v11.051c0 4.416-3.592 8.008-8.007 8.008H28.513c-.884 0-1.601.716-1.602 1.6l-.002 3.185-3.822-3.823a1.602 1.602 0 00-1.47-.962H11.212c-4.416 0-8.008-3.592-8.008-8.008V39.078c0-4.415 3.592-8.008 8.008-8.008h16.176a1.602 1.602 0 000-3.203H11.21C5.029 27.867 0 32.897 0 39.078v24.664c0 6.182 5.03 11.211 11.21 11.211h9.588l6.577 6.578A1.601 1.601 0 0030.11 80.4l.004-5.447h15.692c6.181 0 11.21-5.03 11.21-11.21V52.69c0-.884-.717-1.601-1.6-1.601z"/><path d="M58.722 0H54.67C41.833 0 31.39 10.443 31.39 23.278c0 12.836 10.442 23.278 23.278 23.278h4.053c2.003 0 3.986-.255 5.908-.757l5.988 5.984a1.601 1.601 0 002.734-1.133v-9.266a23.5 23.5 0 006.118-7.544A23.027 23.027 0 0082 23.279C82 10.443 71.558 0 58.722 0zm12.064 39.324a1.602 1.602 0 00-.638 1.28v6.181l-3.919-3.917a1.602 1.602 0 00-1.602-.398 20.078 20.078 0 01-5.905.883H54.67c-11.07 0-20.075-9.006-20.075-20.075 0-11.07 9.005-20.075 20.075-20.075h4.053c11.07 0 20.075 9.006 20.075 20.075 0 6.363-2.92 12.212-8.01 16.046z"/><path d="M63.908 17.525c-.231-3.353-2.934-6.056-6.287-6.287a6.73 6.73 0 00-5.103 1.806 6.805 6.805 0 00-2.155 4.958 1.602 1.602 0 003.203 0c0-1.002.404-1.931 1.137-2.616a3.58 3.58 0 016.009 2.359 3.561 3.561 0 01-2.782 3.748 3.03 3.03 0 00-2.388 2.97v3.849a1.602 1.602 0 003.203 0v-3.72c3.227-.78 5.393-3.733 5.163-7.067zm-5.632 15.989a1.614 1.614 0 00-1.132-.47c-.422 0-.835.172-1.133.47a1.613 1.613 0 00-.469 1.133c0 .422.172.836.47 1.133.297.298.71.468 1.132.468.42 0 .834-.17 1.132-.468.298-.3.47-.71.47-1.133 0-.422-.172-.835-.47-1.133zM44.043 49.648H10.25a1.602 1.602 0 000 3.204h33.793a1.602 1.602 0 000-3.204zm1.132 9.438a1.613 1.613 0 00-1.132-.469c-.421 0-.834.172-1.132.47a1.61 1.61 0 00-.47 1.132c0 .421.172.834.47 1.132.298.298.71.47 1.132.47.421 0 .834-.172 1.132-.47.298-.298.47-.71.47-1.132 0-.422-.172-.835-.47-1.133zm-7.432-.469H10.25a1.602 1.602 0 000 3.203h27.493a1.602 1.602 0 100-3.203zm-4.11-17.937H10.25a1.602 1.602 0 000 3.203h23.383a1.602 1.602 0 100-3.203z"/></symbol><symbol viewBox="0 0 43 30" id="lya" xmlns="http://www.w3.org/2000/svg"><path fill-rule="evenodd" clip-rule="evenodd" d="M0 .524h6.53v17.274c0 2.734 1.268 4.362 2.272 5.06-1.063.93-4.308 1.745-6.727-.233C.649 21.46 0 19.543 0 17.74V.524zm40.808 14.349v-1.815H42.8v-6.37h-2.187C39.773 2.866 36.32 0 32.19 0c-4.758 0-8.615 3.802-8.615 8.492v14.873c1.356.188 2.97-.024 4.344-1.147 1.427-1.166 2.075-3.082 2.075-4.885v-.548h3.261v-6.37h-3.26V8.493h.007c0-1.191.98-2.157 2.188-2.157 1.208 0 2.191.966 2.191 2.157v6.38c0 4.69 3.861 8.493 8.619 8.493V17.03c-1.208 0-2.192-.965-2.192-2.156zm-24.73-8.184v9.347c0 .53-.447.96-.998.96-.55 0-.998-.43-.998-.96V6.689h-6.46v10.993c0 1.977.68 4.478 3.776 5.292 3.1.816 4.897-.872 4.897-.872-.164 1.112-1.226 1.926-2.937 2.1-1.295.132-2.95-.29-3.776-.64v5.825c2.104.611 4.33.81 6.508.392 3.954-.756 6.449-4.013 6.449-8.346V6.69h-6.461z"/></symbol><symbol viewBox="0 0 25 27" id="play" xmlns="http://www.w3.org/2000/svg"><path d="M23.28 11.476l-4.573-2.641-6.265 4.68 6.265 4.682 4.588-2.65a2.36 2.36 0 001.143-2.031c0-.837-.427-1.596-1.158-2.04z"/><path d="M14.026 13.516l-5.544 7.127-7.206 5.676a2.406 2.406 0 01-.713-1.71V2.383c0-.665.27-1.267.713-1.71l7.206 5.714 5.544 7.128z"/><path d="M14.026 13.516l-1.584 2.043v-4.086l1.584 2.043z"/><path d="M18.715 8.827l-4.689 4.689L1.276.674a3.6 3.6 0 01.49-.365 2.345 2.345 0 012.408.048l8.268 4.86 6.273 3.61z"/><path d="M18.715 8.828l-4.689 4.688-1.584-1.584V5.216l6.273 3.612zm0 9.376l-6.273 3.611-8.283 4.837a2.42 2.42 0 01-1.22.348c-.396 0-.792-.11-1.172-.317a3.574 3.574 0 01-.491-.364l12.75-12.803 4.689 4.688z"/><path d="M18.715 18.204l-6.273 3.611V15.1l1.584-1.584 4.689 4.688z"/></symbol><symbol viewBox="0 0 12 13" id="play2" xmlns="http://www.w3.org/2000/svg"><path d="M11.178 6.211L.728 12.245V.178l10.45 6.033z"/></symbol><symbol viewBox="0 0 84 84" id="step1" xmlns="http://www.w3.org/2000/svg"><path d="M63.39 28.89a2.72 2.72 0 10-3.846-3.847l-4.095 4.094a2.72 2.72 0 103.847 3.847l4.094-4.095zM25.65 78.65l8.186-8.159a6.26 6.26 0 012.92-1.642l.38-.089a21.004 21.004 0 009.939-5.554l8.575-8.556"/><path d="M25.65 78.65l8.186-8.159a6.26 6.26 0 012.92-1.642l.38-.089a21.004 21.004 0 009.939-5.554l8.575-8.556"/><path d="M54.21 13.15H33.42a3.5 3.5 0 00-3.5 3.5v39.47a3.5 3.5 0 003.5 3.5h20.79a3.5 3.5 0 003.5-3.5V16.65a3.5 3.5 0 00-3.5-3.5zM39.94 55.9h7.75"/><path d="M39.45 41.03l3.04 2.98 7.57-7.15M29.156 55.247c3.758-4.41 2.705-12.09 2.705-12.09s2.945-3.268 5.023-5.491v-.045l.08-.09a2.992 2.992 0 00-.28-4.11 2.928 2.928 0 00-4.08.12l-9.939 10.054a6.74 6.74 0 00-1.945 4.741v2.554a6.283 6.283 0 01-1.769 4.393L8.65 65.65"/><path d="M29.156 55.247c3.758-4.41 2.705-12.09 2.705-12.09s2.945-3.268 5.023-5.491v-.045l.08-.09a2.992 2.992 0 00-.28-4.11 2.928 2.928 0 00-4.08.12l-9.939 10.054a6.74 6.74 0 00-1.945 4.741v2.554a6.283 6.283 0 01-1.769 4.393L8.65 65.65M62.325 37.532a2.72 2.72 0 00-3.847-3.847l-4.822 4.822a2.72 2.72 0 103.847 3.847l4.822-4.822zM61.76 45.84a2.72 2.72 0 00-3.847-3.848l-1.76 1.761a2.72 2.72 0 003.846 3.847l1.76-1.76zM61.937 52.898a2.72 2.72 0 00-3.847-3.847l-.735.735a2.72 2.72 0 103.847 3.847l.735-.735z"/><path d="M41.65 82.3c22.45 0 40.65-18.2 40.65-40.65S64.1 1 41.65 1 1 19.2 1 41.65 19.2 82.3 41.65 82.3z"/><path d="M41.65 82.3c22.45 0 40.65-18.2 40.65-40.65S64.1 1 41.65 1 1 19.2 1 41.65 19.2 82.3 41.65 82.3z"/><defs><linearGradient id="ipaint1_linear" x1="40.65" y1="54.65" x2="40.65" y2="78.65" gradientUnits="userSpaceOnUse"><stop/></linearGradient><linearGradient id="ipaint5_linear" x1="23.15" y1="32.65" x2="23.15" y2="65.65" gradientUnits="userSpaceOnUse"><stop/></linearGradient><linearGradient id="ipaint2_linear" x1="43.815" y1="13.15" x2="43.815" y2="59.62" gradientUnits="userSpaceOnUse"><stop/></linearGradient><linearGradient id="ipaint3_linear" x1="43.815" y1="55.9" x2="43.815" y2="56.9" gradientUnits="userSpaceOnUse"><stop/></linearGradient><linearGradient id="ipaint4_linear" x1="44.755" y1="36.86" x2="44.755" y2="44.01" gradientUnits="userSpaceOnUse"><stop/></linearGradient><linearGradient id="ipaint0_linear" x1="63.39" y1="25.043" x2="55.449" y2="32.984" gradientUnits="userSpaceOnUse"><stop/></linearGradient><linearGradient id="ipaint6_linear" x1="62.325" y1="33.685" x2="53.656" y2="42.354" gradientUnits="userSpaceOnUse"><stop/></linearGradient><linearGradient id="ipaint7_linear" x1="61.76" y1="41.992" x2="56.152" y2="47.6" gradientUnits="userSpaceOnUse"><stop/></linearGradient><linearGradient id="ipaint8_linear" x1="61.937" y1="49.051" x2="57.355" y2="53.633" gradientUnits="userSpaceOnUse"><stop/></linearGradient><linearGradient id="ipaint9_linear" x1="41.65" y1="1" x2="41.65" y2="82.3" gradientUnits="userSpaceOnUse"><stop/></linearGradient><linearGradient id="ipaint10_linear" x1="41.65" y1="1" x2="41.65" y2="82.3" gradientUnits="userSpaceOnUse"><stop/></linearGradient></defs></symbol><symbol viewBox="0 0 84 84" id="step2" xmlns="http://www.w3.org/2000/svg"><path d="M64.44 20.54H34.09a5.37 5.37 0 00-5.37 5.37v11.82a5.36 5.36 0 005.37 5.37h10l5.18 5.17 5.16-5.17h10a5.36 5.36 0 005.37-5.37V25.91a5.37 5.37 0 00-5.36-5.37z"/><path d="M56.82 27.79H26.47a5.36 5.36 0 00-5.37 5.37v11.82a5.37 5.37 0 005.37 5.36h10l5.17 5.16 5.17-5.16h10a5.37 5.37 0 005.37-5.37V33.16a5.36 5.36 0 00-5.36-5.37z"/><path d="M49.2 35.03H18.85a5.37 5.37 0 00-5.37 5.37v11.82a5.36 5.36 0 005.37 5.37h10l5.17 5.17 5.16-5.17h10a5.36 5.36 0 005.37-5.37V40.4a5.37 5.37 0 00-5.35-5.37z"/><path d="M21.1 51.34a1.87 1.87 0 100-3.74 1.87 1.87 0 000 3.74zM27.22 51.34a1.87 1.87 0 100-3.74 1.87 1.87 0 000 3.74zM33.34 51.34a1.87 1.87 0 100-3.74 1.87 1.87 0 000 3.74z"/><path d="M41.65 82.3c22.45 0 40.65-18.2 40.65-40.65S64.1 1 41.65 1 1 19.2 1 41.65 19.2 82.3 41.65 82.3z"/><path d="M41.65 82.3c22.45 0 40.65-18.2 40.65-40.65S64.1 1 41.65 1 1 19.2 1 41.65 19.2 82.3 41.65 82.3z"/><defs><linearGradient id="jpaint0_linear" x1="49.26" y1="20.54" x2="49.26" y2="48.27" gradientUnits="userSpaceOnUse"><stop/></linearGradient><linearGradient id="jpaint1_linear" x1="41.64" y1="27.79" x2="41.64" y2="55.5" gradientUnits="userSpaceOnUse"><stop/></linearGradient><linearGradient id="jpaint2_linear" x1="34.015" y1="35.03" x2="34.015" y2="62.76" gradientUnits="userSpaceOnUse"><stop/></linearGradient><linearGradient id="jpaint3_linear" x1="21.1" y1="47.6" x2="21.1" y2="51.34" gradientUnits="userSpaceOnUse"><stop/></linearGradient><linearGradient id="jpaint4_linear" x1="27.22" y1="47.6" x2="27.22" y2="51.34" gradientUnits="userSpaceOnUse"><stop/></linearGradient><linearGradient id="jpaint5_linear" x1="33.34" y1="47.6" x2="33.34" y2="51.34" gradientUnits="userSpaceOnUse"><stop/></linearGradient><linearGradient id="jpaint6_linear" x1="41.65" y1="1" x2="41.65" y2="82.3" gradientUnits="userSpaceOnUse"><stop/></linearGradient><linearGradient id="jpaint7_linear" x1="41.65" y1="1" x2="41.65" y2="82.3" gradientUnits="userSpaceOnUse"><stop/></linearGradient></defs></symbol><symbol viewBox="0 0 84 84" id="step3" xmlns="http://www.w3.org/2000/svg"><path d="M41.65 82.3c22.45 0 40.65-18.2 40.65-40.65S64.1 1 41.65 1 1 19.2 1 41.65 19.2 82.3 41.65 82.3zM52.46 28.92a16.45 16.45 0 00-5.22-3M28.21 31.75a16.689 16.689 0 00-2.65 5.42M24.96 41.65a16.69 16.69 0 0026 13.86"/><path d="M62.07 41.65l3.39-5.43-5.41-3.43.69-6.36-6.36-.74-2.13-6.04-6.05 2.09-4.55-4.51-4.54 4.51-6.06-2.09-2.13 6.04-6.36.74.69 6.36-5.41 3.43 3.4 5.43-3.4 5.43 5.41 3.43-.68 6.37 6.35.73 2.14 6.04 6.05-2.09 4.54 4.51 4.55-4.51 6.05 2.09 2.13-6.04 6.36-.74-.69-6.36 5.41-3.43-3.39-5.43z"/><path d="M40.99 54.34v-3.2a9.23 9.23 0 01-4.84-1.39l.76-2.12a8.45 8.45 0 004.56 1.36c2.25 0 3.77-1.3 3.77-3.11 0-1.81-1.24-2.81-3.58-3.76-3.23-1.27-5.23-2.73-5.23-5.48 0-2.75 1.87-4.63 4.79-5.1v-3.2h2v3.07a8.41 8.41 0 014.12 1.11l-.8 2.09a7.62 7.62 0 00-4-1.08c-2.43 0-3.35 1.46-3.35 2.73 0 1.64 1.17 2.47 3.92 3.61 3.27 1.33 4.91 3 4.91 5.79 0 2.51-1.74 4.85-5 5.39v3.29h-2.03z"/><path d="M41.65 82.3c22.45 0 40.65-18.2 40.65-40.65S64.1 1 41.65 1 1 19.2 1 41.65 19.2 82.3 41.65 82.3z"/><defs><linearGradient id="kpaint0_linear" x1="41.65" y1="1" x2="41.65" y2="82.3" gradientUnits="userSpaceOnUse"><stop/></linearGradient><linearGradient id="kpaint1_linear" x1="49.85" y1="25.92" x2="49.85" y2="28.92" gradientUnits="userSpaceOnUse"><stop/></linearGradient><linearGradient id="kpaint2_linear" x1="26.885" y1="31.75" x2="26.885" y2="37.17" gradientUnits="userSpaceOnUse"><stop/></linearGradient><linearGradient id="kpaint3_linear" x1="37.96" y1="41.65" x2="37.96" y2="58.348" gradientUnits="userSpaceOnUse"><stop/></linearGradient><linearGradient id="kpaint4_linear" x1="41.65" y1="17.23" x2="41.65" y2="66.07" gradientUnits="userSpaceOnUse"><stop/></linearGradient><linearGradient id="kpaint5_linear" x1="41.65" y1="1" x2="41.65" y2="82.3" gradientUnits="userSpaceOnUse"><stop/></linearGradient></defs></symbol><symbol viewBox="0 0 60 21" id="uber" xmlns="http://www.w3.org/2000/svg"><g clip-path="url(#lclip0)"><path d="M3.452 14.998a5.18 5.18 0 001.053 1.74c.449.482.98.85 1.595 1.106a5.165 5.165 0 002.003.384c.703 0 1.36-.133 1.975-.399a4.856 4.856 0 001.61-1.12 5.088 5.088 0 001.067-1.726c.253-.668.38-1.415.38-2.241V0h3.072v20.646h-3.043V18.73a7.052 7.052 0 01-2.413 1.681 7.595 7.595 0 01-2.999.59 8.059 8.059 0 01-3.057-.575 7.153 7.153 0 01-2.457-1.637A7.751 7.751 0 01.6 16.237c-.4-.993-.6-2.1-.6-3.318V0h3.072v12.742c0 .825.126 1.577.38 2.256zM21.502 0v7.521a7.822 7.822 0 012.37-1.637 7.054 7.054 0 012.925-.605 7.66 7.66 0 013.072.62 7.846 7.846 0 012.486 1.681 7.916 7.916 0 011.668 2.507c.41.964.614 1.986.614 3.068a7.652 7.652 0 01-.614 3.052 7.96 7.96 0 01-1.668 2.492 7.845 7.845 0 01-2.486 1.682 7.662 7.662 0 01-3.072.619 7.156 7.156 0 01-2.94-.605 7.77 7.77 0 01-2.384-1.637v1.888h-2.926V0h2.955zm.336 15.19a5.14 5.14 0 001.098 1.651 5.294 5.294 0 001.638 1.121 4.947 4.947 0 002.018.413c.703 0 1.366-.138 1.99-.413a5.116 5.116 0 001.623-1.12 5.471 5.471 0 001.097-1.652c.273-.63.41-1.308.41-2.035 0-.728-.137-1.411-.41-2.05a5.424 5.424 0 00-1.097-1.667 5.03 5.03 0 00-3.613-1.504 5.09 5.09 0 00-3.628 1.504 5.295 5.295 0 00-1.11 1.667 5.163 5.163 0 00-.41 2.05c0 .727.131 1.405.394 2.035zm14.466-5.073a8.031 8.031 0 011.61-2.493 7.475 7.475 0 012.427-1.696 7.455 7.455 0 013.043-.619c1.072 0 2.067.197 2.984.59a7.076 7.076 0 012.37 1.637 7.492 7.492 0 011.55 2.477c.37.954.556 1.991.556 3.112v.973h-12.14a5.104 5.104 0 001.682 3.053c.438.384.935.683 1.491.9a4.84 4.84 0 001.77.324c1.775 0 3.208-.737 4.3-2.212l2.136 1.593a7.962 7.962 0 01-2.75 2.36c-1.092.57-2.32.855-3.686.855a8.18 8.18 0 01-3.115-.59 7.582 7.582 0 01-2.516-1.652 7.84 7.84 0 01-1.682-2.492c-.41-.954-.615-1.991-.615-3.112 0-1.062.195-2.065.585-3.008zm4.11-1.165c-.828.698-1.38 1.627-1.652 2.787h9.098c-.254-1.16-.795-2.09-1.624-2.787-.829-.698-1.799-1.047-2.91-1.047-1.112 0-2.083.349-2.912 1.047zm15.958.338c-.624.689-.936 1.623-.936 2.803v8.553h-2.955V5.604h2.926v1.858c.37-.61.853-1.091 1.448-1.445.595-.354 1.302-.531 2.121-.531H60v2.772h-1.23c-.975 0-1.775.345-2.399 1.033z"/></g><defs><clipPath id="lclip0"><path d="M0 0h60v21H0z"/></clipPath></defs></symbol></svg>